<svg width="507" height="197" viewBox="0 0 507 197" fill="none" xmlns="http://www.w3.org/2000/svg">
<path d="M227.58 57.66H222.76V82.84L202.49 57.66H198.53V91.45H203.36V66.27L223.63 91.45H227.58V57.66Z" fill="black"/>
<path d="M254.23 57.66H249.45L234.15 91.45H239.12L242.83 83H260.8L264.51 91.45H269.58L254.23 57.66ZM244.53 79.14L251.82 62.56L259.11 79.14H244.53Z" fill="black"/>
<path d="M280.77 66.96L292.99 87.35H295.21L307.42 66.81L307.47 91.45H312.1L312.05 57.66H308.09L294.19 81.39L280.1 57.66H276.14V91.45H280.77V66.96Z" fill="black"/>
<path d="M327.62 76.34H344.56V72.24H327.62V61.86H346.63V57.66H322.79V91.45H347.31V87.25H327.62V76.34Z" fill="black"/>
<path d="M360.04 57.66H355.21V91.45H378.33V87.25H360.04V57.66Z" fill="black"/>
<path d="M390.25 76.34H407.19V72.24H390.25V61.86H409.27V57.66H385.43V91.45H409.95V87.25H390.25V76.34Z" fill="black"/>
<path d="M437.14 75.18C435.93 74.5 434.6 73.96 433.13 73.54C431.67 73.12 430.21 72.74 428.76 72.41C427.31 72.07 425.99 71.69 424.78 71.28C423.57 70.86 422.59 70.3 421.84 69.59C421.08 68.88 420.71 67.93 420.71 66.74C420.71 65.74 420.99 64.84 421.55 64.04C422.11 63.24 423.01 62.59 424.23 62.11C425.45 61.63 427.01 61.39 428.91 61.39C430.42 61.39 431.98 61.61 433.59 62.04C435.2 62.47 436.73 63.17 438.18 64.14L439.77 60.28C438.35 59.31 436.68 58.57 434.75 58.06C432.82 57.55 430.87 57.29 428.91 57.29C425.95 57.29 423.51 57.73 421.6 58.62C419.69 59.51 418.27 60.68 417.35 62.14C416.43 63.6 415.97 65.21 415.97 66.94C415.97 68.74 416.34 70.22 417.08 71.36C417.82 72.5 418.79 73.41 420 74.09C421.21 74.77 422.54 75.32 424.01 75.76C425.47 76.19 426.93 76.57 428.38 76.89C429.83 77.21 431.15 77.59 432.36 78.02C433.57 78.46 434.55 79.03 435.3 79.73C436.06 80.44 436.43 81.37 436.43 82.53C436.43 83.53 436.14 84.42 435.56 85.21C434.98 86 434.08 86.62 432.86 87.07C431.64 87.52 430.04 87.75 428.08 87.75C425.92 87.75 423.85 87.38 421.85 86.64C419.85 85.9 418.21 84.97 416.93 83.84L415.14 87.61C416.49 88.87 418.34 89.89 420.69 90.68C423.04 91.47 425.5 91.86 428.07 91.86C431.03 91.86 433.48 91.42 435.43 90.53C437.38 89.64 438.82 88.47 439.75 87.01C440.68 85.55 441.15 83.96 441.15 82.26C441.15 80.49 440.78 79.04 440.04 77.92C439.32 76.76 438.35 75.86 437.14 75.18Z" fill="black"/>
<path d="M471.92 77.89C471.18 76.76 470.21 75.8601 469 75.1901C467.79 74.5101 466.46 73.9701 464.99 73.5501C463.53 73.1301 462.07 72.75 460.62 72.42C459.17 72.08 457.85 71.7001 456.64 71.2901C455.43 70.8701 454.45 70.31 453.7 69.6C452.94 68.89 452.57 67.94 452.57 66.75C452.57 65.75 452.85 64.8501 453.41 64.0501C453.97 63.2501 454.87 62.6 456.09 62.12C457.31 61.64 458.87 61.4001 460.77 61.4001C462.28 61.4001 463.84 61.62 465.45 62.05C467.06 62.48 468.59 63.1801 470.04 64.1501L471.63 60.2901C470.21 59.3201 468.54 58.58 466.61 58.07C464.68 57.56 462.73 57.3 460.77 57.3C457.81 57.3 455.37 57.7401 453.46 58.6301C451.55 59.5201 450.13 60.6901 449.21 62.1501C448.29 63.6101 447.83 65.22 447.83 66.95C447.83 68.75 448.2 70.2301 448.94 71.3701C449.68 72.5101 450.65 73.42 451.86 74.1C453.07 74.78 454.4 75.33 455.87 75.77C457.33 76.2 458.79 76.5801 460.24 76.9001C461.69 77.2201 463.01 77.6 464.22 78.03C465.43 78.47 466.41 79.04 467.16 79.74C467.92 80.45 468.29 81.3801 468.29 82.5401C468.29 83.5401 468 84.4301 467.42 85.2201C466.84 86.0101 465.94 86.6301 464.72 87.0801C463.5 87.5301 461.9 87.7601 459.94 87.7601C457.78 87.7601 455.71 87.3901 453.71 86.6501C451.71 85.9101 450.07 84.98 448.79 83.85L447 87.6201C448.35 88.8801 450.2 89.9001 452.55 90.6901C454.9 91.4801 457.36 91.8701 459.93 91.8701C462.89 91.8701 465.34 91.4301 467.29 90.5401C469.24 89.6501 470.68 88.48 471.61 87.02C472.54 85.56 473.01 83.97 473.01 82.27C473.03 80.46 472.66 79.01 471.92 77.89Z" fill="black"/>
<path d="M203.36 105.56H198.53V139.35H221.65V135.15H203.36V105.56Z" fill="black"/>
<path d="M241.99 105.56L226.69 139.35H231.66L235.37 130.9H253.34L257.05 139.35H262.12L246.77 105.56H241.99ZM237.07 127.04L244.36 110.46L251.65 127.04H237.07Z" fill="black"/>
<path d="M292.91 122.41C292.42 122.18 291.89 122.01 291.34 121.86C291.36 121.85 291.39 121.84 291.41 121.83C292.79 121.15 293.9 120.19 294.72 118.93C295.54 117.67 295.95 116.13 295.95 114.3C295.95 111.6 294.9 109.47 292.81 107.9C290.72 106.34 287.73 105.56 283.83 105.56H268.68V139.35H284.8C289.08 139.35 292.31 138.55 294.48 136.96C296.65 135.37 297.74 133.12 297.74 130.23C297.74 128.3 297.31 126.68 296.44 125.38C295.57 124.07 294.39 123.08 292.91 122.41ZM283.41 109.47C285.86 109.47 287.75 109.92 289.11 110.82C290.46 111.72 291.14 113.07 291.14 114.87C291.14 116.67 290.46 118.02 289.11 118.93C287.76 119.83 285.86 120.28 283.41 120.28H273.52V109.47H283.41ZM290.74 134.09C289.32 134.99 287.28 135.44 284.61 135.44H273.51V124.2H284.61C287.28 124.2 289.32 124.65 290.74 125.55C292.16 126.45 292.86 127.88 292.86 129.85C292.87 131.77 292.16 133.18 290.74 134.09Z" fill="black"/>
<path d="M325.81 123.08C324.6 122.4 323.27 121.86 321.8 121.44C320.33 121.02 318.88 120.64 317.43 120.31C315.98 119.97 314.66 119.59 313.45 119.18C312.24 118.76 311.26 118.2 310.5 117.49C309.74 116.78 309.37 115.83 309.37 114.64C309.37 113.64 309.65 112.74 310.21 111.94C310.77 111.14 311.67 110.49 312.89 110.01C314.11 109.53 315.67 109.29 317.57 109.29C319.08 109.29 320.64 109.51 322.25 109.94C323.86 110.37 325.39 111.07 326.84 112.04L328.43 108.18C327.01 107.21 325.34 106.47 323.41 105.96C321.48 105.45 319.53 105.19 317.57 105.19C314.61 105.19 312.17 105.63 310.26 106.52C308.35 107.41 306.93 108.58 306.01 110.04C305.09 111.5 304.63 113.11 304.63 114.84C304.63 116.64 305 118.12 305.74 119.26C306.48 120.4 307.45 121.31 308.66 121.99C309.87 122.67 311.2 123.22 312.67 123.66C314.14 124.09 315.59 124.47 317.04 124.79C318.49 125.11 319.82 125.49 321.02 125.92C322.23 126.36 323.21 126.93 323.96 127.63C324.71 128.34 325.09 129.27 325.09 130.43C325.09 131.43 324.8 132.32 324.22 133.11C323.64 133.9 322.74 134.52 321.52 134.97C320.3 135.42 318.7 135.65 316.74 135.65C314.58 135.65 312.51 135.28 310.51 134.54C308.51 133.8 306.87 132.87 305.59 131.74L303.8 135.51C305.15 136.77 307 137.79 309.35 138.58C311.7 139.37 314.16 139.76 316.74 139.76C319.7 139.76 322.15 139.32 324.1 138.43C326.04 137.54 327.49 136.37 328.42 134.91C329.35 133.45 329.82 131.86 329.82 130.16C329.82 128.39 329.45 126.94 328.71 125.82C327.99 124.66 327.02 123.76 325.81 123.08Z" fill="black"/>
<path d="M38.83 93.8V35.74H64.22V96.23H74.3V125.8H99.32V120.94H79.16V96.23H99.23V30.89H96.88H94.47H89.24H84.59H84.39V81.29H79.16V30.89H74.3V86.15H89.24V35.74H94.47V91.37H69.08V30.89H33.98V96.23H38.83V93.8Z" fill="black"/>
<path d="M38.83 100.78H33.98V166.12H99.32V161.27H38.83V100.78Z" fill="black"/>
<path d="M58.9901 93.8V91.37V40.97H44.0601V96.23H48.9101V45.82H54.1401V91.37V96.23V145.96H99.3201V141.11H58.9901V96.23V93.8Z" fill="black"/>
<path d="M169.43 30.89H145.9L136.85 39.94L127.7 30.89H104.18V96.23H109.03V93.8V35.74H125.74L134.42 44.42V91.37H129.19V47.41L122.75 40.97H114.26V96.23H119.11V45.82H120.7L124.25 49.46V96.23H125.13H129.19H134.42H137.42H139.28V44.42L147.96 35.74H164.57V100.78H149.36V49.46L152.9 45.82H154.49V96.23H159.44V40.97H150.94L144.5 47.41V100.78H104.22V110.86H89.2402V105.63H99.3202V100.78H89.2402H88.4602H84.3902V115.72H104.22V131.02H69.0802V100.78H64.2202V103.21V135.88H104.22H109.08H164.62V161.27H104.22V166.12H169.47V134.87V131.02V125.8V122.58V120.94H119.16V115.72H169.47V110.86H114.31V125.8H164.62V131.02H109.08V105.63H169.47V100.78H169.43V30.89Z" fill="black"/>
<path d="M106.28 151.19H104.22H48.9101V100.78H44.0601V156.04H104.22H106.28H159.48V141.11H104.22V145.96H154.54V151.19H106.28Z" fill="black"/>
</svg>
