<svg width="136" height="136" viewBox="0 0 136 136" fill="none" xmlns="http://www.w3.org/2000/svg">
<path d="M4.85 62.91V4.85H30.24V65.34H40.32V94.91H65.34V90.05H45.18V65.34H65.25V0H62.9H60.49H55.26H50.61H50.41V50.4H45.18V0H40.32V55.26H55.26V4.85H60.49V60.48H35.1V0H0V65.34H4.85V62.91Z" fill="black"/>
<path d="M4.85 69.89H0V135.23H65.34V130.38H4.85V69.89Z" fill="black"/>
<path d="M25.0101 62.91V60.48V10.08H10.0801V65.34H14.9301V14.93H20.1601V60.48V65.34V115.07H65.3401V110.22H25.0101V65.34V62.91Z" fill="black"/>
<path d="M135.45 0H111.92L102.87 9.05L93.7202 0H70.2002V65.34H75.0502V62.91V4.85H91.7602L100.44 13.53V60.48H95.2102V16.52L88.7702 10.08H80.2802V65.34H85.1302V14.93H86.7202L90.2702 18.57V65.34H91.1502H95.2102H100.44H103.44H105.3V13.53L113.98 4.85H130.59V69.89H115.38V18.57L118.92 14.93H120.51V65.34H125.46V10.08H116.96L110.52 16.52V69.89H70.2402V79.97H55.2602V74.74H65.3402V69.89H55.2602H54.4802H50.4102V84.83H70.2402V100.13H35.1002V69.89H30.2402V72.32V104.99H70.2402H75.1002H130.64V130.38H70.2402V135.23H135.49V103.98V100.13V94.91V91.69V90.05H85.1802V84.83H135.49V79.97H80.3302V94.91H130.64V100.13H75.1002V74.74H135.49V69.89H135.45V0Z" fill="black"/>
<path d="M72.3001 120.3H70.2401H14.9301V69.89H10.0801V125.15H70.2401H72.3001H125.5V110.22H70.2401V115.07H120.56V120.3H72.3001Z" fill="black"/>
</svg>
